<svg width="15" height="15" viewBox="0 0 15 15" fill="none" xmlns="http://www.w3.org/2000/svg">
<g clip-path="url(#clip0_69_4)">
<path d="M13.5938 0.937505H10.0781L9.80273 0.389654C9.7444 0.272529 9.65454 0.174006 9.54326 0.105169C9.43198 0.0363316 9.3037 -8.87099e-05 9.17285 5.13654e-06H5.82422C5.69367 -0.000496735 5.56561 0.0357878 5.45473 0.104702C5.34384 0.173615 5.25462 0.272371 5.19727 0.389654L4.92188 0.937505H1.40625C1.28193 0.937505 1.1627 0.986891 1.07479 1.0748C0.986886 1.16271 0.9375 1.28193 0.9375 1.40626L0.9375 2.34376C0.9375 2.46808 0.986886 2.5873 1.07479 2.67521C1.1627 2.76312 1.28193 2.81251 1.40625 2.81251H13.5938C13.7181 2.81251 13.8373 2.76312 13.9252 2.67521C14.0131 2.5873 14.0625 2.46808 14.0625 2.34376V1.40626C14.0625 1.28193 14.0131 1.16271 13.9252 1.0748C13.8373 0.986891 13.7181 0.937505 13.5938 0.937505ZM2.49609 13.6816C2.51845 14.0387 2.67602 14.3737 2.93674 14.6187C3.19745 14.8636 3.5417 15 3.89941 15H11.1006C11.4583 15 11.8026 14.8636 12.0633 14.6187C12.324 14.3737 12.4815 14.0387 12.5039 13.6816L13.125 3.75001H1.875L2.49609 13.6816Z" fill="black"/>
</g>
<defs>
<clipPath id="clip0_69_4">
<rect width="15" height="15" fill="white"/>
</clipPath>
</defs>
</svg>
